<svg width="20" height="20" viewBox="0 0 20 20" fill="none" xmlns="http://www.w3.org/2000/svg">
<path d="M2.222 2.222C2.34899 2.09498 2.51734 2.01775 2.69645 2.00436C2.87556 1.99096 3.05353 2.04228 3.198 2.149L3.282 2.222L17.778 16.717L17.851 16.801C17.9593 16.9454 18.0119 17.1241 17.9991 17.3042C17.9863 17.4842 17.909 17.6537 17.7813 17.7813C17.6537 17.909 17.4842 17.9863 17.3042 17.9991C17.1241 18.0119 16.9454 17.9593 16.801 17.851L16.718 17.778L13.864 14.926C13.6754 14.9585 13.4851 14.9802 13.294 14.991L13.002 15L8.561 14.999L9.781 16.219C9.90813 16.3462 9.98534 16.5148 9.99855 16.6941C10.0118 16.8735 9.96011 17.0516 9.853 17.196L9.78 17.28C9.65301 17.407 9.48466 17.4842 9.30555 17.4976C9.12644 17.511 8.94847 17.4597 8.804 17.353L8.72 17.28L6.22 14.78C6.09298 14.653 6.01575 14.4847 6.00236 14.3055C5.98896 14.1264 6.04028 13.9485 6.147 13.804L6.22 13.719L8.72 11.219C8.85382 11.0848 9.03349 11.0063 9.22287 10.9991C9.41226 10.992 9.59732 11.0568 9.74084 11.1806C9.88437 11.3044 9.97572 11.4779 9.99652 11.6663C10.0173 11.8546 9.96605 12.0439 9.853 12.196L9.78 12.28L8.56 13.5H12.438L5.69 6.752C5.07256 7.00076 4.53881 7.42035 4.15129 7.9616C3.76377 8.50285 3.53855 9.14333 3.502 9.808L3.498 10C3.498 11.083 3.99 12.051 4.762 12.693C4.89874 12.8294 4.9776 13.0133 4.98215 13.2064C4.98669 13.3994 4.91658 13.5868 4.7864 13.7295C4.65623 13.8722 4.47603 13.9591 4.28334 13.9723C4.09065 13.9854 3.90032 13.9237 3.752 13.8C3.13832 13.2761 2.66056 12.6115 2.35953 11.8629C2.05851 11.1143 1.94315 10.304 2.02333 9.50112C2.10351 8.69825 2.37684 7.92672 2.81996 7.25244C3.26309 6.57815 3.86284 6.02114 4.568 5.629L2.222 3.282L2.149 3.198C2.04228 3.05353 1.99096 2.87556 2.00436 2.69645C2.01775 2.51734 2.09498 2.34899 2.222 2.222V2.222ZM15.75 6.01C15.93 6.01 16.094 6.073 16.223 6.178C16.7812 6.6461 17.2299 7.23096 17.5374 7.89133C17.845 8.55171 18.0039 9.27152 18.003 10C18.003 11.52 17.324 12.881 16.254 13.798L15.189 12.733C15.5991 12.4054 15.9302 11.9895 16.1575 11.5164C16.3848 11.0432 16.5026 10.5249 16.502 10C16.502 8.92 16.012 7.953 15.242 7.31C15.1313 7.20774 15.0539 7.0745 15.02 6.92764C14.9861 6.78077 14.9973 6.6271 15.052 6.48667C15.1067 6.34623 15.2025 6.22554 15.3268 6.14034C15.4512 6.05513 15.5983 6.00936 15.749 6.009L15.75 6.01ZM10.22 2.72C10.347 2.59298 10.5153 2.51575 10.6944 2.50236C10.8736 2.48896 11.0515 2.54028 11.196 2.647L11.28 2.719L13.78 5.219L13.853 5.304C13.9472 5.43142 13.9986 5.58541 13.9999 5.74386C14.0011 5.90231 13.9522 6.05709 13.86 6.186L13.78 6.28L11.28 8.78L11.256 8.801L10.199 7.744L10.219 7.719L11.439 6.499H8.953L7.452 4.999H11.439L10.219 3.78L10.147 3.696C10.04 3.55145 9.98853 3.37327 10.0019 3.19393C10.0153 3.0146 10.0927 2.84604 10.22 2.719V2.72Z" fill="black"/>
</svg>
