<svg width="20" height="20" viewBox="0 0 20 20" fill="none" xmlns="http://www.w3.org/2000/svg">
<path d="M15.75 6.01C15.93 6.01 16.094 6.073 16.223 6.178C16.9925 6.82671 17.5483 7.69255 17.8177 8.66227C18.0872 9.63199 18.0577 10.6604 17.7331 11.6131C17.4086 12.5658 16.8041 13.3984 15.9987 14.0019C15.1933 14.6055 14.2245 14.952 13.219 14.996L13.002 15H8.561L9.781 16.22C9.90787 16.3471 9.98491 16.5155 9.99812 16.6946C10.0113 16.8737 9.95984 17.0516 9.853 17.196L9.78 17.28C9.65301 17.407 9.48466 17.4842 9.30555 17.4976C9.12644 17.511 8.94847 17.4597 8.804 17.353L8.72 17.28L6.22 14.78C6.09298 14.653 6.01575 14.4847 6.00236 14.3055C5.98896 14.1264 6.04028 13.9485 6.147 13.804L6.22 13.72L8.72 11.22C8.854 11.087 9.03321 11.0095 9.22186 11.0029C9.41051 10.9962 9.59473 11.061 9.73775 11.1842C9.88077 11.3074 9.97207 11.48 9.99343 11.6675C10.0148 11.8551 9.96465 12.0438 9.853 12.196L9.78 12.28L8.56 13.5H13.002C13.8971 13.5001 14.7581 13.1572 15.4082 12.5419C16.0583 11.9267 16.4479 11.0857 16.497 10.192L16.502 10C16.502 8.919 16.012 7.952 15.242 7.31C15.1316 7.20762 15.0545 7.07436 15.0209 6.92758C14.9872 6.7808 14.9985 6.62728 15.0533 6.48702C15.1081 6.34676 15.2039 6.22625 15.3282 6.14117C15.4524 6.05609 15.5994 6.01038 15.75 6.01V6.01ZM10.22 2.72C10.347 2.59298 10.5153 2.51575 10.6944 2.50236C10.8736 2.48896 11.0515 2.54029 11.196 2.647L11.28 2.72L13.78 5.22L13.853 5.304C13.9472 5.43142 13.9986 5.58541 13.9999 5.74386C14.0011 5.90232 13.9522 6.0571 13.86 6.186L13.78 6.28L11.28 8.78L11.196 8.853C11.0686 8.94719 10.9146 8.9986 10.7561 8.99986C10.5977 9.00112 10.4429 8.95216 10.314 8.86L10.22 8.78L10.147 8.696C10.0528 8.56857 10.0014 8.41459 10.0001 8.25614C9.99888 8.09768 10.0478 7.9429 10.14 7.814L10.22 7.72L11.439 6.5H6.998C6.10293 6.49993 5.24185 6.84278 4.59179 7.45806C3.94173 8.07333 3.5521 8.91428 3.503 9.808L3.498 10C3.498 11.083 3.99 12.051 4.762 12.693C4.89874 12.8294 4.9776 13.0133 4.98215 13.2064C4.98669 13.3994 4.91658 13.5868 4.7864 13.7295C4.65623 13.8722 4.47603 13.9592 4.28334 13.9723C4.09065 13.9854 3.90032 13.9237 3.752 13.8C2.98959 13.148 2.44094 12.2817 2.17737 11.3138C1.9138 10.3458 1.94748 9.32096 2.27406 8.37241C2.60063 7.42387 3.20498 6.59549 4.00856 5.99495C4.81215 5.39441 5.77779 5.04948 6.78 5.005L6.998 5H11.438L10.22 3.78L10.147 3.696C10.0403 3.55153 9.98896 3.37356 10.0024 3.19445C10.0158 3.01534 10.093 2.84699 10.22 2.72V2.72Z" fill="black"/>
</svg>
